<svg width="814" height="56" viewBox="0 0 814 56" fill="none" xmlns="http://www.w3.org/2000/svg">
<rect y="14" width="814" height="4" fill="#333333"/>
<rect x="57" width="32" height="32" rx="16" fill="#4C4C4D"/>
<circle cx="73" cy="16" r="8" fill="#9EFF00"/>
<path d="M52.7884 54.9545V40.4091H53.7202V54.9545H52.7884ZM55.7031 44.9205C55.6425 44.3826 55.3925 43.9659 54.9531 43.6705C54.5137 43.3712 53.9607 43.2216 53.294 43.2216C52.8168 43.2216 52.4039 43.2973 52.0554 43.4489C51.7069 43.5966 51.4361 43.8011 51.2429 44.0625C51.0535 44.3201 50.9588 44.6136 50.9588 44.9432C50.9588 45.2197 51.0232 45.4583 51.152 45.6591C51.2846 45.8598 51.4569 46.0284 51.669 46.1648C51.8849 46.2973 52.116 46.4091 52.3622 46.5C52.6084 46.5871 52.8452 46.6591 53.0724 46.7159L54.2088 47.0114C54.58 47.1023 54.9607 47.2254 55.3509 47.3807C55.741 47.536 56.1027 47.7405 56.4361 47.9943C56.7694 48.2481 57.0384 48.5625 57.2429 48.9375C57.4512 49.3125 57.5554 49.7614 57.5554 50.2841C57.5554 50.9432 57.3849 51.5284 57.044 52.0398C56.7069 52.5511 56.2164 52.9545 55.5724 53.25C54.9323 53.5455 54.1577 53.6932 53.2486 53.6932C52.3774 53.6932 51.6236 53.5549 50.9872 53.2784C50.3509 53.0019 49.8527 52.6098 49.4929 52.1023C49.133 51.5909 48.9342 50.9848 48.8963 50.2841H50.6577C50.6918 50.7045 50.8281 51.0549 51.0668 51.3352C51.3092 51.6117 51.6179 51.8182 51.9929 51.9545C52.3717 52.0871 52.7865 52.1534 53.2372 52.1534C53.7334 52.1534 54.1747 52.0758 54.5611 51.9205C54.9512 51.7614 55.258 51.5417 55.4815 51.2614C55.705 50.9773 55.8168 50.6458 55.8168 50.267C55.8168 49.9223 55.7183 49.6402 55.5213 49.4205C55.3281 49.2008 55.0649 49.0189 54.7315 48.875C54.402 48.7311 54.0289 48.6042 53.6122 48.4943L52.2372 48.1193C51.3054 47.8655 50.5668 47.4924 50.0213 47C49.4796 46.5076 49.2088 45.8561 49.2088 45.0455C49.2088 44.375 49.3906 43.7898 49.7543 43.2898C50.1179 42.7898 50.6103 42.4015 51.2315 42.125C51.8527 41.8447 52.5535 41.7045 53.3338 41.7045C54.1217 41.7045 54.8168 41.8428 55.419 42.1193C56.0251 42.3958 56.5024 42.7765 56.8509 43.2614C57.1993 43.7424 57.3812 44.2955 57.3963 44.9205H55.7031ZM63.9091 41.8636V53.5H62.1477V43.625H62.0795L59.2955 45.4432V43.7614L62.1989 41.8636H63.9091ZM71.108 53.6932C70.2102 53.6894 69.4432 53.4527 68.8068 52.983C68.1705 52.5133 67.6837 51.8295 67.3466 50.9318C67.0095 50.0341 66.8409 48.9527 66.8409 47.6875C66.8409 46.4261 67.0095 45.3485 67.3466 44.4545C67.6875 43.5606 68.1761 42.8788 68.8125 42.4091C69.4527 41.9394 70.2178 41.7045 71.108 41.7045C71.9981 41.7045 72.7614 41.9413 73.3977 42.4148C74.0341 42.8845 74.5208 43.5663 74.858 44.4602C75.1989 45.3504 75.3693 46.4261 75.3693 47.6875C75.3693 48.9564 75.2008 50.0398 74.8636 50.9375C74.5265 51.8314 74.0398 52.5152 73.4034 52.9886C72.767 53.4583 72.0019 53.6932 71.108 53.6932ZM71.108 52.1761C71.8958 52.1761 72.5114 51.7917 72.9545 51.0227C73.4015 50.2538 73.625 49.142 73.625 47.6875C73.625 46.7216 73.5227 45.9053 73.3182 45.2386C73.1174 44.5682 72.8277 44.0606 72.4489 43.7159C72.0739 43.3674 71.6269 43.1932 71.108 43.1932C70.3239 43.1932 69.7083 43.5795 69.2614 44.3523C68.8144 45.125 68.589 46.2367 68.5852 47.6875C68.5852 48.6572 68.6856 49.4773 68.8864 50.1477C69.0909 50.8144 69.3807 51.3201 69.7557 51.6648C70.1307 52.0057 70.5814 52.1761 71.108 52.1761ZM81.4361 53.6932C80.5384 53.6894 79.7713 53.4527 79.1349 52.983C78.4986 52.5133 78.0118 51.8295 77.6747 50.9318C77.3376 50.0341 77.169 48.9527 77.169 47.6875C77.169 46.4261 77.3376 45.3485 77.6747 44.4545C78.0156 43.5606 78.5043 42.8788 79.1406 42.4091C79.7808 41.9394 80.5459 41.7045 81.4361 41.7045C82.3262 41.7045 83.0895 41.9413 83.7259 42.4148C84.3622 42.8845 84.849 43.5663 85.1861 44.4602C85.527 45.3504 85.6974 46.4261 85.6974 47.6875C85.6974 48.9564 85.5289 50.0398 85.1918 50.9375C84.8546 51.8314 84.3679 52.5152 83.7315 52.9886C83.0952 53.4583 82.33 53.6932 81.4361 53.6932ZM81.4361 52.1761C82.224 52.1761 82.8395 51.7917 83.2827 51.0227C83.7296 50.2538 83.9531 49.142 83.9531 47.6875C83.9531 46.7216 83.8509 45.9053 83.6463 45.2386C83.4455 44.5682 83.1558 44.0606 82.777 43.7159C82.402 43.3674 81.955 43.1932 81.4361 43.1932C80.652 43.1932 80.0365 43.5795 79.5895 44.3523C79.1425 45.125 78.9171 46.2367 78.9134 47.6875C78.9134 48.6572 79.0137 49.4773 79.2145 50.1477C79.419 50.8144 79.7088 51.3201 80.0838 51.6648C80.4588 52.0057 80.9096 52.1761 81.4361 52.1761ZM91.7642 53.6932C90.8665 53.6894 90.0994 53.4527 89.4631 52.983C88.8267 52.5133 88.34 51.8295 88.0028 50.9318C87.6657 50.0341 87.4972 48.9527 87.4972 47.6875C87.4972 46.4261 87.6657 45.3485 88.0028 44.4545C88.3438 43.5606 88.8324 42.8788 89.4688 42.4091C90.1089 41.9394 90.8741 41.7045 91.7642 41.7045C92.6544 41.7045 93.4176 41.9413 94.054 42.4148C94.6903 42.8845 95.1771 43.5663 95.5142 44.4602C95.8551 45.3504 96.0256 46.4261 96.0256 47.6875C96.0256 48.9564 95.857 50.0398 95.5199 50.9375C95.1828 51.8314 94.696 52.5152 94.0597 52.9886C93.4233 53.4583 92.6581 53.6932 91.7642 53.6932ZM91.7642 52.1761C92.5521 52.1761 93.1676 51.7917 93.6108 51.0227C94.0578 50.2538 94.2812 49.142 94.2812 47.6875C94.2812 46.7216 94.179 45.9053 93.9744 45.2386C93.7737 44.5682 93.4839 44.0606 93.1051 43.7159C92.7301 43.3674 92.2831 43.1932 91.7642 43.1932C90.9801 43.1932 90.3646 43.5795 89.9176 44.3523C89.4706 45.125 89.2453 46.2367 89.2415 47.6875C89.2415 48.6572 89.3419 49.4773 89.5426 50.1477C89.7472 50.8144 90.0369 51.3201 90.4119 51.6648C90.7869 52.0057 91.2377 52.1761 91.7642 52.1761Z" fill="white"/>
<rect x="89" y="13.5" width="262" height="5" fill="#9EFF00"/>
<rect x="351" width="32" height="32" rx="16" fill="#4C4C4D"/>
<circle cx="367" cy="16" r="8" fill="#9EFF00"/>
<path d="M346.109 54.9545V40.4091H347.04V54.9545H346.109ZM349.023 44.9205C348.963 44.3826 348.713 43.9659 348.273 43.6705C347.834 43.3712 347.281 43.2216 346.614 43.2216C346.137 43.2216 345.724 43.2973 345.376 43.4489C345.027 43.5966 344.756 43.8011 344.563 44.0625C344.374 44.3201 344.279 44.6136 344.279 44.9432C344.279 45.2197 344.344 45.4583 344.472 45.6591C344.605 45.8598 344.777 46.0284 344.989 46.1648C345.205 46.2973 345.436 46.4091 345.683 46.5C345.929 46.5871 346.165 46.6591 346.393 46.7159L347.529 47.0114C347.9 47.1023 348.281 47.2254 348.671 47.3807C349.061 47.536 349.423 47.7405 349.756 47.9943C350.09 48.2481 350.359 48.5625 350.563 48.9375C350.772 49.3125 350.876 49.7614 350.876 50.2841C350.876 50.9432 350.705 51.5284 350.364 52.0398C350.027 52.5511 349.537 52.9545 348.893 53.25C348.253 53.5455 347.478 53.6932 346.569 53.6932C345.698 53.6932 344.944 53.5549 344.308 53.2784C343.671 53.0019 343.173 52.6098 342.813 52.1023C342.453 51.5909 342.254 50.9848 342.217 50.2841H343.978C344.012 50.7045 344.148 51.0549 344.387 51.3352C344.629 51.6117 344.938 51.8182 345.313 51.9545C345.692 52.0871 346.107 52.1534 346.558 52.1534C347.054 52.1534 347.495 52.0758 347.881 51.9205C348.272 51.7614 348.578 51.5417 348.802 51.2614C349.025 50.9773 349.137 50.6458 349.137 50.267C349.137 49.9223 349.039 49.6402 348.842 49.4205C348.648 49.2008 348.385 49.0189 348.052 48.875C347.722 48.7311 347.349 48.6042 346.933 48.4943L345.558 48.1193C344.626 47.8655 343.887 47.4924 343.342 47C342.8 46.5076 342.529 45.8561 342.529 45.0455C342.529 44.375 342.711 43.7898 343.075 43.2898C343.438 42.7898 343.931 42.4015 344.552 42.125C345.173 41.8447 345.874 41.7045 346.654 41.7045C347.442 41.7045 348.137 41.8428 348.739 42.1193C349.345 42.3958 349.823 42.7765 350.171 43.2614C350.52 43.7424 350.701 44.2955 350.717 44.9205H349.023ZM356.656 53.6591C355.943 53.6591 355.303 53.5227 354.735 53.25C354.171 52.9735 353.72 52.5947 353.383 52.1136C353.046 51.6326 352.866 51.0833 352.843 50.4659H354.548C354.589 50.9659 354.811 51.3769 355.212 51.6989C355.614 52.0208 356.095 52.1818 356.656 52.1818C357.103 52.1818 357.498 52.0795 357.843 51.875C358.192 51.6667 358.464 51.3807 358.661 51.017C358.862 50.6534 358.962 50.2386 358.962 49.7727C358.962 49.2992 358.86 48.8769 358.656 48.5057C358.451 48.1345 358.169 47.8428 357.809 47.6307C357.453 47.4186 357.044 47.3106 356.582 47.3068C356.229 47.3068 355.875 47.3674 355.519 47.4886C355.163 47.6098 354.875 47.7689 354.656 47.9659L353.048 47.7273L353.701 41.8636H360.099V43.3693H355.161L354.792 46.625H354.86C355.087 46.4053 355.388 46.2216 355.763 46.0739C356.142 45.9261 356.548 45.8523 356.979 45.8523C357.688 45.8523 358.318 46.0208 358.871 46.358C359.428 46.6951 359.866 47.1553 360.184 47.7386C360.506 48.3182 360.665 48.9848 360.661 49.7386C360.665 50.4924 360.495 51.1648 360.15 51.7557C359.809 52.3466 359.335 52.8125 358.729 53.1534C358.127 53.4905 357.436 53.6591 356.656 53.6591ZM366.788 53.6932C365.89 53.6894 365.123 53.4527 364.487 52.983C363.85 52.5133 363.363 51.8295 363.026 50.9318C362.689 50.0341 362.521 48.9527 362.521 47.6875C362.521 46.4261 362.689 45.3485 363.026 44.4545C363.367 43.5606 363.856 42.8788 364.492 42.4091C365.132 41.9394 365.897 41.7045 366.788 41.7045C367.678 41.7045 368.441 41.9413 369.077 42.4148C369.714 42.8845 370.201 43.5663 370.538 44.4602C370.879 45.3504 371.049 46.4261 371.049 47.6875C371.049 48.9564 370.88 50.0398 370.543 50.9375C370.206 51.8314 369.719 52.5152 369.083 52.9886C368.447 53.4583 367.682 53.6932 366.788 53.6932ZM366.788 52.1761C367.576 52.1761 368.191 51.7917 368.634 51.0227C369.081 50.2538 369.305 49.142 369.305 47.6875C369.305 46.7216 369.202 45.9053 368.998 45.2386C368.797 44.5682 368.507 44.0606 368.129 43.7159C367.754 43.3674 367.307 43.1932 366.788 43.1932C366.004 43.1932 365.388 43.5795 364.941 44.3523C364.494 45.125 364.269 46.2367 364.265 47.6875C364.265 48.6572 364.365 49.4773 364.566 50.1477C364.771 50.8144 365.06 51.3201 365.435 51.6648C365.81 52.0057 366.261 52.1761 366.788 52.1761ZM377.116 53.6932C376.218 53.6894 375.451 53.4527 374.815 52.983C374.178 52.5133 373.692 51.8295 373.354 50.9318C373.017 50.0341 372.849 48.9527 372.849 47.6875C372.849 46.4261 373.017 45.3485 373.354 44.4545C373.695 43.5606 374.184 42.8788 374.82 42.4091C375.46 41.9394 376.226 41.7045 377.116 41.7045C378.006 41.7045 378.769 41.9413 379.406 42.4148C380.042 42.8845 380.529 43.5663 380.866 44.4602C381.207 45.3504 381.377 46.4261 381.377 47.6875C381.377 48.9564 381.209 50.0398 380.871 50.9375C380.534 51.8314 380.048 52.5152 379.411 52.9886C378.775 53.4583 378.01 53.6932 377.116 53.6932ZM377.116 52.1761C377.904 52.1761 378.519 51.7917 378.962 51.0227C379.409 50.2538 379.633 49.142 379.633 47.6875C379.633 46.7216 379.531 45.9053 379.326 45.2386C379.125 44.5682 378.835 44.0606 378.457 43.7159C378.082 43.3674 377.635 43.1932 377.116 43.1932C376.332 43.1932 375.716 43.5795 375.269 44.3523C374.822 45.125 374.597 46.2367 374.593 47.6875C374.593 48.6572 374.693 49.4773 374.894 50.1477C375.099 50.8144 375.388 51.3201 375.763 51.6648C376.138 52.0057 376.589 52.1761 377.116 52.1761ZM387.444 53.6932C386.546 53.6894 385.779 53.4527 385.143 52.983C384.506 52.5133 384.02 51.8295 383.683 50.9318C383.345 50.0341 383.177 48.9527 383.177 47.6875C383.177 46.4261 383.345 45.3485 383.683 44.4545C384.023 43.5606 384.512 42.8788 385.148 42.4091C385.789 41.9394 386.554 41.7045 387.444 41.7045C388.334 41.7045 389.097 41.9413 389.734 42.4148C390.37 42.8845 390.857 43.5663 391.194 44.4602C391.535 45.3504 391.705 46.4261 391.705 47.6875C391.705 48.9564 391.537 50.0398 391.2 50.9375C390.862 51.8314 390.376 52.5152 389.739 52.9886C389.103 53.4583 388.338 53.6932 387.444 53.6932ZM387.444 52.1761C388.232 52.1761 388.847 51.7917 389.29 51.0227C389.737 50.2538 389.961 49.142 389.961 47.6875C389.961 46.7216 389.859 45.9053 389.654 45.2386C389.453 44.5682 389.164 44.0606 388.785 43.7159C388.41 43.3674 387.963 43.1932 387.444 43.1932C386.66 43.1932 386.044 43.5795 385.597 44.3523C385.15 45.125 384.925 46.2367 384.921 47.6875C384.921 48.6572 385.022 49.4773 385.222 50.1477C385.427 50.8144 385.717 51.3201 386.092 51.6648C386.467 52.0057 386.917 52.1761 387.444 52.1761Z" fill="white"/>
</svg>
